<svg id="Calque_1" data-name="Calque 1" xmlns="http://www.w3.org/2000/svg" viewBox="0 0 1025.42502 132.00472"><defs><style>.cls-1{fill:#2a183d;}.cls-2{fill:#fff;}</style></defs><title>Asterion_partners_purple_transparent</title><path class="cls-1" d="M132.12083,65.9706A66.06045,66.06045,0,1,1,65.9828.00086C102.327-.18443,132.02443,29.43742,132.12083,65.9706ZM112.07447,90.60313a30.96313,30.96313,0,1,0-30.88541,31.00631A30.94692,30.94692,0,0,0,112.07447,90.60313Z"/><path class="cls-1" d="M565.66549,83.70125V39.32942h6.98636c.49126,1.68851.669,52.687.143,56.81933-2.2453,0-4.54472-.002-6.8442.00085-1.1614.00147-1.44052-1.00251-1.926-1.72779q-6.45807-9.64878-12.88221-19.32022-7.33736-11.01309-14.67885-22.02336A5.78347,5.78347,0,0,0,534.616,51.2065V96.01524c-2.36976.3077-4.66442.05886-6.91418.13735-.5519-1.83629-.74366-52.59913-.20573-56.99937,2.24183,0,4.54534-.11,6.8256.07154.6284.05,1.32453.87556,1.75624,1.50517,2.72985,3.98068,5.394,8.00631,8.07991,12.01712q9.79509,14.62667,19.5936,29.251c.4422.65962.93376,1.28609,1.40244,1.928Z"/><path class="cls-1" d="M829.3894,96.03954h-7.19916V39.2663h7.683Q844.84421,61.60288,859.89586,84.06l.52323-.17108V39.27026h6.88227c.49193,1.83888.67673,52.71792.18016,56.87788-2.25817,0-4.5704.1099-6.85939-.07222-.6234-.04961-1.31343-.88614-1.74075-1.51834-3.7733-5.58237-7.495-11.19962-11.23054-16.80751Q839.48829,65.49593,831.324,53.24282c-.443-.6642-.93547-1.29546-1.73849-2.40144-.35276,3.46866-.15088,6.41453-.18779,9.34723-.0377,2.99579-.00836,5.99244-.00836,8.98869V86.905C829.38934,89.88468,829.3894,92.86434,829.3894,96.03954Z"/><path class="cls-1" d="M511.97278,67.0209c-.225,9.927-2.92813,17.917-10.175,23.81223-6.04186,4.91494-13.12406,6.68319-20.777,6.019a34.30519,34.30519,0,0,1-8.24353-1.76347,24.26388,24.26388,0,0,1-14.917-13.84645c-3.90247-9.25151-3.99893-18.65686.31115-27.81456,4.03053-8.56359,11.13262-13.16778,20.34177-14.7165a29.95476,29.95476,0,0,1,16.40416,1.74313c8.97639,3.61187,14.17417,10.451,16.19465,19.76653A66.57239,66.57239,0,0,1,511.97278,67.0209Zm-49.50215.45411c.07467,1.32973.05771,2.67208.239,3.98711,1.076,7.80291,4.76784,13.7772,12.255,16.90141a21.86658,21.86658,0,0,0,11.4902,1.427q12.65927-1.67187,16.762-13.65448a26.49732,26.49732,0,0,0-.262-17.63809,18.69459,18.69459,0,0,0-11.71844-11.81966,22.904,22.904,0,0,0-10.57157-1.06488,19.24618,19.24618,0,0,0-13.494,7.17564C463.72793,57.07617,462.50748,62.08641,462.47063,67.475Z"/><path class="cls-1" d="M933.25435,39.28993a9.8328,9.8328,0,0,1,1.13882-.14464c6.74091.01827,13.484-.04443,20.222.10744a19.70534,19.70534,0,0,1,10.37091,3.13,12.41205,12.41205,0,0,1,5.39588,6.94076,21.70341,21.70341,0,0,1-.54849,14.66877c-1.662,4.18491-4.87936,6.83888-8.96925,8.51684-.6882.28239-1.40336.49906-2.37831.84177,4.65912,7.53112,9.25784,14.96463,14.10426,22.79864-2.87823,0-5.33231-.01644-7.786.00756-1.087.01065-1.328-.86952-1.7277-1.55646q-5.26836-9.05348-10.50805-18.12376c-.41646-.71875-.84256-1.43189-1.32393-2.249H940.5884V96.00167h-7.334Zm7.34674,28.37433c5.14757-.04248,10.04987.34235,14.89568-.53806,3.89149-.7071,6.691-2.818,7.74051-6.81411a15.862,15.862,0,0,0,.049-8.12711,7.29223,7.29223,0,0,0-5.17331-5.556,17.11194,17.11194,0,0,0-4.10161-.90642c-4.14858-.14172-8.30375-.09951-12.45636-.10857a3.82121,3.82121,0,0,0-.954.2673Z"/><path class="cls-1" d="M417.3528,96.01908c-.6458.07109-.94267.13119-1.23967.13214-2.407.00771-4.81415.00433-7.28226.00433-4.25764-7.33644-8.47025-14.59531-12.72709-21.93041H385.387V96.01789h-7.29312V39.11647c7.94608.20429,15.75019-.39617,23.54164.41328a19.9403,19.9403,0,0,1,3.4106.69548c6.66288,1.91027,10.47292,6.31454,10.99273,13.20855a28.54044,28.54044,0,0,1-.59687,8.1608c-1.17554,5.34773-4.6981,8.84978-9.70665,10.91009-.38269.15739-.79134.2505-1.18061.3934-.31021.11387-.60925.258-1.18257.50461C408.00089,80.89059,412.59625,88.32447,417.3528,96.01908ZM385.45939,67.67344c3.247,0,6.30774.056,9.36509-.021a35.61141,35.61141,0,0,0,5.445-.48954c3.89576-.70695,6.76608-2.79965,7.77049-6.7742a18.55649,18.55649,0,0,0,.52915-5.41973c-.27071-5.2747-2.47684-7.75253-7.67221-8.91734a14.76,14.76,0,0,0-2.94637-.38875c-3.65574-.06386-7.31273-.06533-10.96924-.06987a12.21132,12.21132,0,0,0-1.52187.19587Z"/><path class="cls-1" d="M725.08879,39.25815c.83352-.05669,1.32294-.12,1.81219-.11868,6.41157.0175,12.82395-.0069,19.23443.08907a20.86372,20.86372,0,0,1,9.79673,2.5423,12.8549,12.8549,0,0,1,6.81815,9.05676,23.30007,23.30007,0,0,1-.5436,12.06865c-1.55967,4.77689-4.92012,7.78607-9.451,9.64627-.68594.28163-1.39622.50382-2.29076.82338,4.64631,7.51,9.22575,14.912,13.96619,22.57414-2.94363.42257-5.62936.12982-8.39362.2238-.5059-.81295-1.00252-1.56576-1.45455-2.3445-3.46551-5.97106-6.96366-11.92389-10.34986-17.93975a3.02411,3.02411,0,0,0-3.13367-1.80546c-2.73278.11439-5.47373.03223-8.4891.03223V95.99282h-7.517C725.08409,77.18282,725.09123,58.34088,725.08879,39.25815Zm7.60707,6.29027c-.45605,5.60237-.276,20.22548.31689,22.31922,4.56748-.21707,9.22647-.2676,13.84917-.70332,5.24561-.49449,8.38569-3.976,8.74528-9.22589a27.24924,27.24924,0,0,0,.0335-2.99347c-.20939-5.01738-2.32974-7.7292-7.194-8.80148C743.28232,45.00505,738.03823,45.80467,732.69586,45.54842Z"/><path class="cls-1" d="M210.83933,82.70255H185.12014c-1.61341,4.47528-3.21234,8.91038-4.82116,13.37283h-7.69783l20.934-56.80311h8.93042c6.93694,18.8094,13.88526,37.6496,20.91877,56.72086h-7.71326Q213.26437,89.37315,210.83933,82.70255Zm-12.5807-35.299-.48652-.07291c-3.3877,9.48421-6.77542,18.96846-10.21616,28.60119h20.9059C205.00138,66.25638,201.63,56.83,198.25863,47.40355Z"/><path class="cls-1" d="M673.95479,82.70529c-1.64692,4.58437-3.21562,8.95106-4.79835,13.35682h-7.70432c6.99807-18.98944,13.93623-37.81631,20.92094-56.76959h8.94527c6.915,18.75323,13.86046,37.58922,20.89849,56.67609H704.5131c-1.58443-4.35891-3.19554-8.79117-4.82109-13.26332Zm13.03333-35.62261c-1.9231,3.60519-10.148,27.25237-10.099,28.88666H697.3148C693.83843,66.24494,690.4457,56.75453,686.98812,47.08268Z"/><path class="cls-1" d="M231.73462,81.73633c2.37156-.56771,4.60189-1.1016,6.78783-1.62484a4.4643,4.4643,0,0,1,.52743.7788c1.99046,5.72109,6.19454,8.562,12.02063,9.48851a18.15883,18.15883,0,0,0,10.25261-1.18451,8.41655,8.41655,0,0,0,4.984-10.24194,6.82044,6.82044,0,0,0-3.26555-4.53658,47.71084,47.71084,0,0,0-7.23769-3.24092c-3.37-1.15956-6.87245-1.92969-10.2663-3.027a34.4757,34.4757,0,0,1-5.47919-2.352c-9.34788-4.947-7.93735-17.14013-2.77917-22.073a18.80238,18.80238,0,0,1,9.41082-4.82187A27.18489,27.18489,0,0,1,263.995,40.779c4.82016,2.22291,7.85268,5.982,9.2838,11.44084l-6.62625,1.69738a5.11242,5.11242,0,0,1-.555-.83414c-2.54746-7.32559-10.39384-9.00355-15.92931-8.22731a16.30547,16.30547,0,0,0-4.28757,1.22232,8.02674,8.02674,0,0,0-5.16065,7.566,7.276,7.276,0,0,0,4.91149,7.38212,90.88745,90.88745,0,0,0,9.68655,3.15684,61.53914,61.53914,0,0,1,11.23615,4.01511c8.61235,4.42387,9.09238,14.34832,5.62708,20.423a14.23713,14.23713,0,0,1-7.493,6.3174,28.63027,28.63027,0,0,1-24.57939-1.36388A16.17366,16.17366,0,0,1,231.73462,81.73633Z"/><path class="cls-1" d="M982.91605,81.7688c2.33291-.57173,4.561-1.11778,6.91674-1.69509.28663.64132.52518,1.14383.73835,1.657,1.98674,4.78317,5.6592,7.42491,10.63971,8.46917a18.40562,18.40562,0,0,0,11.24751-.96152,8.47028,8.47028,0,0,0,5.047-10.42287,6.93764,6.93764,0,0,0-3.34691-4.48392,49.04391,49.04391,0,0,0-7.26169-3.18965c-3.2931-1.1298-6.71127-1.89109-10.02608-2.964a34.40673,34.40673,0,0,1-5.4913-2.32538c-9.61352-5.09627-7.94843-17.3887-2.76194-22.23237A19.14981,19.14981,0,0,1,998.065,38.863a27.49056,27.49056,0,0,1,15.9309,1.37279,16.55655,16.55655,0,0,1,10.47572,11.83814,36.06092,36.06092,0,0,1-6.57984,1.783,3.55034,3.55034,0,0,1-.51347-.69136c-2.00187-5.41385-6.24294-7.76573-11.65309-8.39635a15.75113,15.75113,0,0,0-8.76158,1.3483,8.12076,8.12076,0,0,0-5.02457,7.67531,6.86251,6.86251,0,0,0,3.5436,6.44073,27.90577,27.90577,0,0,0,5.45287,2.39021c3.55666,1.13181,7.22082,1.93266,10.7599,3.112a40.57586,40.57586,0,0,1,7.05134,3.09137c9.03587,5.08758,8.25275,18.19211,1.53294,23.5149a21.1799,21.1799,0,0,1-9.492,4.15727,30.20084,30.20084,0,0,1-15.0382-.95323c-6.035-1.96577-10.46095-5.70926-12.48406-11.913A15.58362,15.58362,0,0,1,982.91605,81.7688Z"/><path class="cls-1" d="M622.87942,74.10627v21.8743h-7.223V39.32107a11.6914,11.6914,0,0,1,1.44991-.17633c6.49193.01238,12.99008-.11741,19.47274.14037a25.56908,25.56908,0,0,1,7.98412,1.68318c5.25031,2.01063,8.23438,6.04309,8.90623,11.65034a24.12538,24.12538,0,0,1-.53122,9.16676,16.10243,16.10243,0,0,1-14.2364,11.82307c-3.71388.37559-7.46821.36043-11.20546.48988C626.0885,74.14711,624.67752,74.10627,622.87942,74.10627Zm.10042-6.25129c4.71415-.20813,9.27248-.24356,13.79725-.65095,5.69672-.51288,8.79379-3.8426,9.2654-9.52884a19.66134,19.66134,0,0,0,.02178-2.73688c-.29078-5.0913-2.45677-7.66683-7.46925-8.85037a14.12105,14.12105,0,0,0-2.94186-.40952c-3.65269-.07133-7.30691-.07926-10.96051-.08646a14.159,14.159,0,0,0-1.71281.20551Z"/><path class="cls-1" d="M339.63741,64.31323h20.02637v6.69414c-3.273.0183-6.56315.04389-9.85344.053-3.32189.00921-6.64388.002-10.14831.002V89.26834c2.45786.5136,4.93955.16943,7.39454.22917,2.58029.06288,5.16325.01409,7.74506.01409h7.6779v6.275c-1.68452.46418-26.0646.64736-30.44184.19088V39.29734h30.51073v6.3622c-2.48877.21792-5.03772.07362-7.57423.09984-2.49825.02583-4.997.00565-7.49548.00565h-7.8413Z"/><path class="cls-1" d="M894.73034,45.65481V64.24528h20.11718V70.935a63.7078,63.7078,0,0,1-6.59985.12158c-2.16422.02672-4.32893.00583-6.49346.00583-2.24139,0-4.48273,0-6.671,0-.592,1.87392-.77624,13.21126-.31213,18.29445,7.54893.39226,15.16351-.04194,22.916.24643v6.40837H887.173V39.55985c1.71757-.52346,26.06021-.72577,30.49322-.23214v6.3271Z"/><path class="cls-1" d="M297.327,45.77625H282.79736V39.27548h36.31272v6.47469H304.72872V95.99051H297.327Z"/><path class="cls-1" d="M787.5723,45.77771H772.87039v-6.497h36.40652v6.37159H794.80483c-.066,16.9309.008,33.59814-.043,50.38342H787.5723Z"/><path class="cls-1" d="M439.53781,96.08114h-7.08135V39.13382c1.1689,0,2.305,0,3.441,0,1.15548,0,2.311,0,3.64037,0Z"/><path class="cls-2" d="M112.07447,90.60313a30.963,30.963,0,1,1-30.9239-30.95691A30.92407,30.92407,0,0,1,112.07447,90.60313Z"/></svg>