<svg width="243" height="30" viewBox="0 0 243 30" fill="none" xmlns="http://www.w3.org/2000/svg">
<g clip-path="url(#clip0_158_703)">
<path d="M31.3093 14.9928C31.3136 17.9622 30.3995 20.8662 28.6828 23.3374C26.966 25.8087 24.5237 27.7362 21.6646 28.8762C18.8055 30.0162 15.6582 30.3174 12.6205 29.7419C9.58292 29.1664 6.79149 27.7399 4.59926 25.6428C2.40704 23.5458 0.912492 20.8724 0.304634 17.9607C-0.303224 15.049 0.00291107 12.0299 1.18432 9.28507C2.36573 6.54026 4.36936 4.19309 6.9418 2.54038C9.51424 0.887681 12.5399 0.00368655 15.6363 0.000196482C24.2489 -0.0419134 31.2865 6.69008 31.3093 14.9928ZM26.5589 20.5909C26.5568 19.1988 26.1243 17.8386 25.316 16.6823C24.5077 15.526 23.3599 14.6256 22.0179 14.095C20.6759 13.5645 19.2 13.4275 17.7768 13.7016C16.3537 13.9757 15.0473 14.6484 14.0229 15.6347C12.9985 16.6209 12.3021 17.8764 12.0219 19.2423C11.7417 20.6082 11.8902 22.0232 12.4487 23.3081C13.0072 24.593 13.9505 25.6902 15.1594 26.4609C16.3682 27.2315 17.7882 27.641 19.2398 27.6375C21.1847 27.6338 23.0484 26.8893 24.421 25.5679C25.7936 24.2464 26.5626 22.4561 26.5589 20.5909Z" fill="white"/>
<path d="M48.6339 19.16H42.8139L41.8139 22H39.4339L44.4139 8.08H47.0539L52.0339 22H49.6339L48.6339 19.16ZM47.9939 17.3L45.7339 10.84L43.4539 17.3H47.9939ZM58.7792 22.14C57.8459 22.14 57.0059 21.98 56.2592 21.66C55.5126 21.3267 54.9259 20.86 54.4992 20.26C54.0726 19.66 53.8592 18.96 53.8592 18.16H56.2992C56.3526 18.76 56.5859 19.2533 56.9992 19.64C57.4259 20.0267 58.0192 20.22 58.7792 20.22C59.5659 20.22 60.1792 20.0333 60.6192 19.66C61.0592 19.2733 61.2792 18.78 61.2792 18.18C61.2792 17.7133 61.1392 17.3333 60.8592 17.04C60.5926 16.7467 60.2526 16.52 59.8392 16.36C59.4392 16.2 58.8792 16.0267 58.1592 15.84C57.2526 15.6 56.5126 15.36 55.9392 15.12C55.3792 14.8667 54.8992 14.48 54.4992 13.96C54.0992 13.44 53.8992 12.7467 53.8992 11.88C53.8992 11.08 54.0992 10.38 54.4992 9.78C54.8992 9.18 55.4592 8.72 56.1792 8.4C56.8992 8.08 57.7326 7.92 58.6792 7.92C60.0259 7.92 61.1259 8.26 61.9792 8.94C62.8459 9.60667 63.3259 10.5267 63.4192 11.7H60.8992C60.8592 11.1933 60.6192 10.76 60.1792 10.4C59.7392 10.04 59.1592 9.86 58.4392 9.86C57.7859 9.86 57.2526 10.0267 56.8392 10.36C56.4259 10.6933 56.2192 11.1733 56.2192 11.8C56.2192 12.2267 56.3459 12.58 56.5992 12.86C56.8659 13.1267 57.1992 13.34 57.5992 13.5C57.9992 13.66 58.5459 13.8333 59.2392 14.02C60.1592 14.2733 60.9059 14.5267 61.4792 14.78C62.0659 15.0333 62.5592 15.4267 62.9592 15.96C63.3726 16.48 63.5792 17.18 63.5792 18.06C63.5792 18.7667 63.3859 19.4333 62.9992 20.06C62.6259 20.6867 62.0726 21.1933 61.3392 21.58C60.6192 21.9533 59.7659 22.14 58.7792 22.14ZM75.2495 8.1V9.96H71.5495V22H69.2695V9.96H65.5495V8.1H75.2495ZM79.8386 9.94V14.02H84.6386V15.88H79.8386V20.14H85.2386V22H77.5586V8.08H85.2386V9.94H79.8386ZM95.2669 22L92.0669 16.44H90.3269V22H88.0469V8.1H92.8469C93.9135 8.1 94.8135 8.28667 95.5469 8.66C96.2935 9.03333 96.8469 9.53333 97.2069 10.16C97.5802 10.7867 97.7669 11.4867 97.7669 12.26C97.7669 13.1667 97.5002 13.9933 96.9669 14.74C96.4469 15.4733 95.6402 15.9733 94.5469 16.24L97.9869 22H95.2669ZM90.3269 14.62H92.8469C93.7002 14.62 94.3402 14.4067 94.7669 13.98C95.2069 13.5533 95.4269 12.98 95.4269 12.26C95.4269 11.54 95.2135 10.98 94.7869 10.58C94.3602 10.1667 93.7135 9.96 92.8469 9.96H90.3269V14.62ZM102.964 8.1V22H100.684V8.1H102.964ZM112.297 22.14C111.004 22.14 109.81 21.84 108.717 21.24C107.637 20.6267 106.777 19.78 106.137 18.7C105.51 17.6067 105.197 16.38 105.197 15.02C105.197 13.66 105.51 12.44 106.137 11.36C106.777 10.28 107.637 9.44 108.717 8.84C109.81 8.22667 111.004 7.92 112.297 7.92C113.604 7.92 114.797 8.22667 115.877 8.84C116.97 9.44 117.83 10.28 118.457 11.36C119.084 12.44 119.397 13.66 119.397 15.02C119.397 16.38 119.084 17.6067 118.457 18.7C117.83 19.78 116.97 20.6267 115.877 21.24C114.797 21.84 113.604 22.14 112.297 22.14ZM112.297 20.16C113.217 20.16 114.037 19.9533 114.757 19.54C115.477 19.1133 116.037 18.5133 116.437 17.74C116.85 16.9533 117.057 16.0467 117.057 15.02C117.057 13.9933 116.85 13.0933 116.437 12.32C116.037 11.5467 115.477 10.9533 114.757 10.54C114.037 10.1267 113.217 9.92 112.297 9.92C111.377 9.92 110.557 10.1267 109.837 10.54C109.117 10.9533 108.55 11.5467 108.137 12.32C107.737 13.0933 107.537 13.9933 107.537 15.02C107.537 16.0467 107.737 16.9533 108.137 17.74C108.55 18.5133 109.117 19.1133 109.837 19.54C110.557 19.9533 111.377 20.16 112.297 20.16ZM133.061 22H130.781L123.921 11.62V22H121.641V8.08H123.921L130.781 18.44V8.08H133.061V22ZM150.97 12.24C150.97 12.9467 150.803 13.6133 150.47 14.24C150.137 14.8667 149.603 15.38 148.87 15.78C148.137 16.1667 147.197 16.36 146.05 16.36H143.53V22H141.25V8.1H146.05C147.117 8.1 148.017 8.28667 148.75 8.66C149.497 9.02 150.05 9.51333 150.41 10.14C150.783 10.7667 150.97 11.4667 150.97 12.24ZM146.05 14.5C146.917 14.5 147.563 14.3067 147.99 13.92C148.417 13.52 148.63 12.96 148.63 12.24C148.63 10.72 147.77 9.96 146.05 9.96H143.53V14.5H146.05ZM161.525 19.16H155.705L154.705 22H152.325L157.305 8.08H159.945L164.925 22H162.525L161.525 19.16ZM160.885 17.3L158.625 10.84L156.345 17.3H160.885ZM174.31 22L171.11 16.44H169.37V22H167.09V8.1H171.89C172.957 8.1 173.857 8.28667 174.59 8.66C175.337 9.03333 175.89 9.53333 176.25 10.16C176.623 10.7867 176.81 11.4867 176.81 12.26C176.81 13.1667 176.543 13.9933 176.01 14.74C175.49 15.4733 174.683 15.9733 173.59 16.24L177.03 22H174.31ZM169.37 14.62H171.89C172.743 14.62 173.383 14.4067 173.81 13.98C174.25 13.5533 174.47 12.98 174.47 12.26C174.47 11.54 174.257 10.98 173.83 10.58C173.403 10.1667 172.757 9.96 171.89 9.96H169.37V14.62ZM188.707 8.1V9.96H185.007V22H182.727V9.96H179.007V8.1H188.707ZM202.436 22H200.156L193.296 11.62V22H191.016V8.08H193.296L200.156 18.44V8.08H202.436V22ZM207.71 9.94V14.02H212.51V15.88H207.71V20.14H213.11V22H205.43V8.08H213.11V9.94H207.71ZM223.138 22L219.938 16.44H218.198V22H215.918V8.1H220.718C221.785 8.1 222.685 8.28667 223.418 8.66C224.165 9.03333 224.718 9.53333 225.078 10.16C225.451 10.7867 225.638 11.4867 225.638 12.26C225.638 13.1667 225.371 13.9933 224.838 14.74C224.318 15.4733 223.511 15.9733 222.418 16.24L225.858 22H223.138ZM218.198 14.62H220.718C221.571 14.62 222.211 14.4067 222.638 13.98C223.078 13.5533 223.298 12.98 223.298 12.26C223.298 11.54 223.085 10.98 222.658 10.58C222.231 10.1667 221.585 9.96 220.718 9.96H218.198V14.62ZM233.135 22.14C232.201 22.14 231.361 21.98 230.615 21.66C229.868 21.3267 229.281 20.86 228.855 20.26C228.428 19.66 228.215 18.96 228.215 18.16H230.655C230.708 18.76 230.941 19.2533 231.355 19.64C231.781 20.0267 232.375 20.22 233.135 20.22C233.921 20.22 234.535 20.0333 234.975 19.66C235.415 19.2733 235.635 18.78 235.635 18.18C235.635 17.7133 235.495 17.3333 235.215 17.04C234.948 16.7467 234.608 16.52 234.195 16.36C233.795 16.2 233.235 16.0267 232.515 15.84C231.608 15.6 230.868 15.36 230.295 15.12C229.735 14.8667 229.255 14.48 228.855 13.96C228.455 13.44 228.255 12.7467 228.255 11.88C228.255 11.08 228.455 10.38 228.855 9.78C229.255 9.18 229.815 8.72 230.535 8.4C231.255 8.08 232.088 7.92 233.035 7.92C234.381 7.92 235.481 8.26 236.335 8.94C237.201 9.60667 237.681 10.5267 237.775 11.7H235.255C235.215 11.1933 234.975 10.76 234.535 10.4C234.095 10.04 233.515 9.86 232.795 9.86C232.141 9.86 231.608 10.0267 231.195 10.36C230.781 10.6933 230.575 11.1733 230.575 11.8C230.575 12.2267 230.701 12.58 230.955 12.86C231.221 13.1267 231.555 13.34 231.955 13.5C232.355 13.66 232.901 13.8333 233.595 14.02C234.515 14.2733 235.261 14.5267 235.835 14.78C236.421 15.0333 236.915 15.4267 237.315 15.96C237.728 16.48 237.935 17.18 237.935 18.06C237.935 18.7667 237.741 19.4333 237.355 20.06C236.981 20.6867 236.428 21.1933 235.695 21.58C234.975 21.9533 234.121 22.14 233.135 22.14Z" fill="white"/>
<mask id="mask0_158_703" style="mask-type:alpha" maskUnits="userSpaceOnUse" x="11" y="13" width="16" height="15">
<path d="M26.5577 20.5901C26.558 21.9823 26.1277 23.3433 25.3212 24.5008C24.5147 25.6584 23.3683 26.5605 22.027 27.0931C20.6858 27.6256 19.21 27.7647 17.7863 27.4926C16.3626 27.2205 15.0551 26.5495 14.0291 25.5646C13.0032 24.5796 12.305 23.325 12.0228 21.9593C11.7406 20.5937 11.8871 19.1785 12.4439 17.8928C13.0006 16.607 13.9425 15.5086 15.1504 14.7364C16.3583 13.9642 17.7779 13.5529 19.2295 13.5547C20.1925 13.5547 21.1461 13.7367 22.0357 14.0904C22.9253 14.444 23.7335 14.9624 24.4141 15.6158C25.0947 16.2692 25.6343 17.0448 26.0021 17.8983C26.37 18.7519 26.5587 19.6666 26.5577 20.5901Z" fill="white"/>
</mask>
<g mask="url(#mask0_158_703)">
</g>
</g>
<defs>
<clipPath id="clip0_158_703">
<rect width="243" height="30" fill="white"/>
</clipPath>
</defs>
</svg>
