<svg width="32" height="30" viewBox="0 0 32 30" fill="none" xmlns="http://www.w3.org/2000/svg">
<path d="M31.3093 14.9928C31.3136 17.9622 30.3995 20.8662 28.6828 23.3374C26.966 25.8087 24.5237 27.7362 21.6646 28.8762C18.8055 30.0162 15.6582 30.3174 12.6205 29.7419C9.58292 29.1664 6.79149 27.7399 4.59926 25.6428C2.40704 23.5458 0.912492 20.8724 0.304634 17.9607C-0.303224 15.049 0.00291107 12.0299 1.18432 9.28507C2.36573 6.54026 4.36936 4.19309 6.9418 2.54038C9.51424 0.887681 12.5399 0.00368655 15.6363 0.000196482C24.2489 -0.0419134 31.2865 6.69008 31.3093 14.9928ZM26.5589 20.5909C26.5568 19.1988 26.1243 17.8386 25.316 16.6823C24.5077 15.526 23.3599 14.6256 22.0179 14.095C20.6759 13.5645 19.2 13.4275 17.7768 13.7016C16.3537 13.9757 15.0473 14.6484 14.0229 15.6347C12.9985 16.6209 12.3021 17.8764 12.0219 19.2423C11.7417 20.6082 11.8902 22.0232 12.4487 23.3081C13.0072 24.593 13.9505 25.6902 15.1594 26.4609C16.3682 27.2315 17.7882 27.641 19.2398 27.6375C21.1847 27.6338 23.0484 26.8893 24.421 25.5679C25.7936 24.2464 26.5626 22.4561 26.5589 20.5909Z" fill="white"/>
</svg>
