<svg width="306" height="346" viewBox="0 0 306 346" fill="none" xmlns="http://www.w3.org/2000/svg">
<g clip-path="url(#clip0_83_129)">
<path d="M301.087 46.5773H158.563C157.468 46.6629 156.368 46.6351 155.279 46.4942C154.446 46.3436 153.704 45.8707 153.213 45.177C152.232 43.2308 151.559 41.1303 150.697 39.1129C147.024 30.4501 142.17 22.5348 135.155 16.2097C122.743 4.99543 107.649 0.450383 91.4221 0.224911C62.2865 -0.190433 33.1392 0.0943743 3.99182 0.106241C0.307063 0.106241 0 0.426649 0 3.9986V210.674C0 214.471 0.377924 214.851 4.06268 214.851C19.841 214.863 35.6114 214.867 51.374 214.863C55.2713 214.851 55.6138 214.518 55.6138 210.555C55.6021 186.085 55.5903 161.616 55.5784 137.146C55.6182 136.323 55.705 135.503 55.8382 134.689C56.1098 134.618 56.3815 134.547 56.6531 134.488C58.1766 137.11 59.5938 139.804 61.2236 142.367C73.7896 162.221 86.4736 181.991 98.9451 201.916C101.791 206.461 103.539 211.694 106.48 216.168C109.869 221.33 113.968 226.041 117.865 230.859C119.188 232.497 119.199 233.316 117.263 234.55C112.645 237.493 108.086 240.555 103.775 243.925C89.8868 254.759 79.6828 267.872 79.0215 286.503C78.679 296.246 80.1434 305.681 84.5722 314.462C88.4932 322.211 94.5518 328.323 101.236 333.473C110.838 340.878 122.306 344.272 134.222 345.589C140.328 346.266 146.54 345.886 152.705 345.957C161.208 346.04 169.298 343.785 177.293 341.281C185.667 338.671 192.895 333.948 199.496 328.18C203.063 325.059 203.004 325.32 206.606 328.145C213.326 333.437 220.148 338.595 227.073 343.619C231.23 346.61 231.466 346.36 233.639 341.72C238.671 330.945 243.729 320.186 248.815 309.442C250.634 305.609 250.575 305.74 247.009 303.414C241.824 300.044 236.769 296.472 231.655 293.007C230.238 292.045 229.99 291.037 230.9 289.47C232.919 286.029 234.939 282.564 236.604 278.944C239.096 273.545 242.06 268.3 242.048 261.998C242.001 206.045 241.989 150.089 242.013 94.1282C242.013 90.1409 241.989 90.129 245.969 90.129C264.535 90.1171 283.1 90.1171 301.666 90.129C303.756 90.129 305.74 90.1053 306 87.3165V49.4135C305.658 46.2094 303.272 46.5773 301.087 46.5773ZM97.457 75.8649C94.9297 84.243 89.7923 90.3189 81.9268 93.2381C76.8248 95.1369 71.0142 95.1606 65.5107 95.8133C63.1487 96.0981 60.7158 95.7777 58.3301 95.8845C56.2398 95.9675 55.5312 95.1131 55.5548 93.0364C55.6493 85.1093 55.5902 77.194 55.5902 69.2669C55.602 61.6483 55.6729 54.0178 55.5548 46.3992C55.5312 44.1564 56.0508 43.0765 58.5309 43.1477C65.4989 43.3376 72.396 43.2664 79.3285 44.8209C92.7094 47.8114 101.449 62.6807 97.457 75.8649ZM174.176 297.065C167.084 302.957 158.394 306.57 149.233 307.437C138.167 308.6 131.187 303.236 126.167 294.419C124.668 291.796 124.585 288.367 123.853 285.305C124.597 274.696 128.955 266.531 137.493 260.503C139.407 259.15 140.658 259.031 142.359 260.764C149.445 267.955 156.673 274.993 163.771 282.172C167.408 285.863 170.845 289.755 174.471 293.446C175.935 294.929 175.652 295.855 174.176 297.065V297.065ZM164.987 178.348C176.349 183.997 176.042 200.907 167.668 207.03C164.444 209.392 161.173 211.694 157.83 213.866C157.437 214.084 156.998 214.202 156.549 214.21C156.1 214.218 155.656 214.116 155.256 213.913C150.732 208.894 145.158 204.645 142.95 197.881C142.241 195.721 141.922 193.443 141.426 191.212C140.67 179.642 154.689 173.233 164.987 178.348V178.348ZM171.554 146.568C163.537 144.886 155.294 144.589 147.178 145.69C142.072 146.504 137.051 147.787 132.179 149.523C129.498 150.413 127.703 150.734 125.825 148.016C121.384 141.62 116.648 135.425 111.96 129.207C110.377 127.106 111.098 126.276 113.33 125.742C127.009 122.595 138.922 114.201 146.528 102.352C148.122 99.9548 149.055 97.1305 150.567 94.6622C150.891 94.1619 151.316 93.7355 151.815 93.4105C152.313 93.0855 152.874 92.8691 153.461 92.7753C169.629 92.6567 185.797 92.716 201.965 92.6567C204.551 92.6448 204.764 93.9858 204.764 96.0981C204.693 116.545 204.74 137.004 204.681 157.45C204.651 158.783 204.831 160.113 205.213 161.39C205.449 161.722 205.543 161.972 205.484 162.138C205.38 161.894 205.289 161.644 205.213 161.39C203.063 158.518 189.505 150.01 171.554 146.568V146.568ZM204.587 248.304C204.398 252.267 202.851 256.195 201.752 260.088C201.28 261.749 200.052 261.571 198.989 260.527C192.28 253.81 185.584 247.085 178.9 240.353C177.364 238.81 178.415 238.051 179.703 237.101C185.372 232.912 191.029 228.7 196.579 224.356C198.375 222.775 200.079 221.091 201.681 219.313C202.366 218.648 203.099 218.031 203.807 217.39C204.055 217.521 204.315 217.651 204.575 217.782C204.634 218.743 204.728 219.704 204.728 220.666C204.728 229.886 205.012 239.107 204.587 248.304Z" fill="#FF6363"/>
</g>
<defs>
<clipPath id="clip0_83_129">
<rect width="306" height="346" fill="white"/>
</clipPath>
</defs>
</svg>
