<svg width="76" height="86" viewBox="0 0 76 86" fill="none" xmlns="http://www.w3.org/2000/svg">
<path d="M74.7798 11.577H39.3815C39.1097 11.5983 38.8365 11.5914 38.5661 11.5564C38.359 11.5189 38.1747 11.4014 38.0528 11.229C37.8093 10.7452 37.6421 10.2231 37.428 9.72171C36.5158 7.56851 35.3102 5.60113 33.5679 4.029C30.4851 1.24164 26.7364 0.111945 22.7061 0.0559027C15.4699 -0.047333 8.23064 0.0234572 0.991432 0.0264068C0.076264 0.0264068 0 0.106046 0 0.993873V52.364C0 53.3078 0.0938634 53.4022 1.00903 53.4022C4.92783 53.4052 8.84467 53.4061 12.7596 53.4052C13.7275 53.4022 13.8126 53.3196 13.8126 52.3345C13.8097 46.2524 13.8067 40.1703 13.8038 34.0883C13.8137 33.8837 13.8352 33.6798 13.8683 33.4777C13.9358 33.46 14.0032 33.4423 14.0707 33.4276C14.4491 34.0794 14.8011 34.749 15.2059 35.3861C18.3268 40.3208 21.4771 45.2348 24.5746 50.1872C25.2815 51.3169 25.7156 52.6176 26.446 53.7296C27.2878 55.0127 28.3057 56.1837 29.2736 57.3812C29.6022 57.7883 29.6051 57.9918 29.124 58.2985C27.9771 59.03 26.8449 59.791 25.7743 60.6287C22.3248 63.3217 19.7905 66.581 19.6262 71.2118C19.5412 73.6335 19.9049 75.9784 21.0049 78.1611C21.9787 80.0872 23.4834 81.6062 25.1436 82.8863C27.5284 84.7269 30.3765 85.5705 33.3362 85.8979C34.8527 86.066 36.3955 85.9716 37.9267 85.9893C40.0386 86.01 42.0479 85.4495 44.0336 84.8272C46.1133 84.1783 47.9084 83.0043 49.5481 81.5708C50.434 80.7951 50.4193 80.86 51.3139 81.562C52.9829 82.8775 54.6774 84.1596 56.3972 85.4082C57.4297 86.1515 57.4884 86.0896 58.0281 84.9363C59.2776 82.2581 60.534 79.5838 61.7973 76.9134C62.249 75.9607 62.2343 75.9931 61.3485 75.415C60.0608 74.5773 58.8054 73.6895 57.5353 72.8282C57.1833 72.5893 57.1217 72.3386 57.3476 71.9492C57.8492 71.0939 58.3508 70.2326 58.7643 69.333C59.3833 67.9909 60.1195 66.6872 60.1166 65.1209C60.1048 51.2136 60.1019 37.3053 60.1078 23.396C60.1078 22.405 60.1019 22.402 61.0904 22.402C65.7014 22.3991 70.3125 22.3991 74.9235 22.402C75.4427 22.402 75.9355 22.3961 76 21.703V12.282C75.9149 11.4856 75.3224 11.577 74.7798 11.577ZM24.205 18.8566C23.5773 20.939 22.3013 22.4492 20.3478 23.1748C19.0807 23.6467 17.6375 23.6526 16.2706 23.8149C15.684 23.8857 15.0797 23.806 14.4872 23.8326C13.968 23.8532 13.792 23.6408 13.7979 23.1247C13.8214 21.1543 13.8067 19.187 13.8067 17.2166C13.8096 15.323 13.8272 13.4264 13.7979 11.5328C13.792 10.9753 13.9211 10.7069 14.5371 10.7246C16.2677 10.7718 17.9807 10.7541 19.7025 11.1405C23.0259 11.8838 25.1964 15.5796 24.205 18.8566ZM43.2593 73.837C41.498 75.3014 39.3396 76.1996 37.0643 76.4149C34.3159 76.704 32.5823 75.3708 31.3357 73.1792C30.9632 72.5274 30.9426 71.6749 30.7608 70.9139C30.9456 68.277 32.0279 66.2477 34.1487 64.7493C34.6238 64.413 34.9348 64.3835 35.3572 64.8142C37.1171 66.6016 38.9122 68.3507 40.6751 70.1352C41.5785 71.0526 42.4321 72.02 43.3326 72.9374C43.6963 73.3061 43.6259 73.5361 43.2593 73.837V73.837ZM40.9772 44.3293C43.799 45.7333 43.7227 49.9364 41.6431 51.4584C40.8423 52.0454 40.0298 52.6176 39.1997 53.1574C39.1021 53.2115 38.9928 53.2409 38.8814 53.2429C38.77 53.245 38.6597 53.2197 38.5602 53.1692C37.4368 51.9215 36.0523 50.8656 35.5038 49.1843C35.3278 48.6475 35.2486 48.0812 35.1254 47.5266C34.9377 44.6508 38.4194 43.058 40.9772 44.3293V44.3293ZM42.6081 36.4303C40.617 36.0122 38.5697 35.9383 36.5539 36.212C35.2858 36.4142 34.0388 36.7331 32.8287 37.1647C32.1629 37.3859 31.717 37.4656 31.2506 36.7901C30.1477 35.2003 28.9715 33.6606 27.807 32.115C27.414 31.5929 27.5929 31.3865 28.1473 31.2537C31.5446 30.4715 34.5034 28.3852 36.3926 25.4401C36.7886 24.8443 37.0203 24.1423 37.3958 23.5287C37.4763 23.4044 37.5819 23.2984 37.7056 23.2176C37.8294 23.1369 37.9687 23.0831 38.1144 23.0598C42.13 23.0303 46.1456 23.045 50.1612 23.0303C50.8036 23.0273 50.8564 23.3606 50.8564 23.8856C50.8388 28.9678 50.8505 34.0529 50.8358 39.135C50.8285 39.4664 50.873 39.7969 50.9678 40.1143C51.0265 40.1969 51.05 40.2588 51.0353 40.3001C51.0093 40.2395 50.9868 40.1775 50.9678 40.1143C50.434 39.4005 47.0666 37.2857 42.6081 36.4303V36.4303ZM50.8123 61.7171C50.7654 62.7023 50.3812 63.6786 50.1084 64.6461C49.991 65.059 49.686 65.0148 49.422 64.7552C47.7559 63.0857 46.0928 61.4143 44.4326 59.7409C44.0512 59.3574 44.3123 59.1687 44.632 58.9327C46.04 57.8915 47.445 56.8444 48.8236 55.7648C49.2697 55.3719 49.6928 54.9533 50.0908 54.5113C50.2609 54.3461 50.4428 54.1927 50.6188 54.0334C50.6804 54.0659 50.7449 54.0983 50.8094 54.1308C50.8241 54.3697 50.8475 54.6086 50.8475 54.8475C50.8475 57.1394 50.9179 59.4312 50.8123 61.7171Z" fill="#FF6363"/>
</svg>
